<mxfile host="app.diagrams.net" agent="Mozilla/5.0 (Windows NT 10.0; Win64; x64) AppleWebKit/537.36 (KHTML, like Gecko) Chrome/141.0.0.0 Safari/537.36" version="24.7.17">
  <diagram name="Страница — 1" id="csUFmGtpuvJmVypeH9lA">
    <mxGraphModel dx="1674" dy="738" grid="1" gridSize="10" guides="1" tooltips="1" connect="1" arrows="1" fold="1" page="1" pageScale="1" pageWidth="827" pageHeight="1169" math="0" shadow="0">
      <root>
        <mxCell id="0" />
        <mxCell id="1" parent="0" />
        <mxCell id="ZtpR7DNHZK9avG1IFooU-1" value="Draft" style="rounded=0;whiteSpace=wrap;html=1;" vertex="1" parent="1">
          <mxGeometry x="120" y="80" width="120" height="60" as="geometry" />
        </mxCell>
        <mxCell id="ZtpR7DNHZK9avG1IFooU-2" value="Occasions" style="text;html=1;align=center;verticalAlign=middle;whiteSpace=wrap;rounded=0;" vertex="1" parent="1">
          <mxGeometry x="150" y="40" width="60" height="30" as="geometry" />
        </mxCell>
        <mxCell id="ZtpR7DNHZK9avG1IFooU-3" value="Planned" style="rounded=0;whiteSpace=wrap;html=1;" vertex="1" parent="1">
          <mxGeometry x="120" y="200" width="120" height="60" as="geometry" />
        </mxCell>
        <mxCell id="ZtpR7DNHZK9avG1IFooU-4" value="InProgress" style="rounded=0;whiteSpace=wrap;html=1;" vertex="1" parent="1">
          <mxGeometry x="120" y="320" width="120" height="60" as="geometry" />
        </mxCell>
        <mxCell id="ZtpR7DNHZK9avG1IFooU-5" value="Completed" style="rounded=0;whiteSpace=wrap;html=1;" vertex="1" parent="1">
          <mxGeometry x="120" y="440" width="120" height="60" as="geometry" />
        </mxCell>
        <mxCell id="ZtpR7DNHZK9avG1IFooU-8" value="" style="endArrow=classic;html=1;rounded=0;exitX=0.5;exitY=1;exitDx=0;exitDy=0;entryX=0.5;entryY=0;entryDx=0;entryDy=0;" edge="1" parent="1" source="ZtpR7DNHZK9avG1IFooU-1" target="ZtpR7DNHZK9avG1IFooU-3">
          <mxGeometry width="50" height="50" relative="1" as="geometry">
            <mxPoint x="390" y="410" as="sourcePoint" />
            <mxPoint x="440" y="360" as="targetPoint" />
          </mxGeometry>
        </mxCell>
        <mxCell id="ZtpR7DNHZK9avG1IFooU-22" value="Plan" style="edgeLabel;html=1;align=center;verticalAlign=middle;resizable=0;points=[];" vertex="1" connectable="0" parent="ZtpR7DNHZK9avG1IFooU-8">
          <mxGeometry x="0.0333" relative="1" as="geometry">
            <mxPoint as="offset" />
          </mxGeometry>
        </mxCell>
        <mxCell id="ZtpR7DNHZK9avG1IFooU-9" value="" style="endArrow=classic;html=1;rounded=0;exitX=0.5;exitY=1;exitDx=0;exitDy=0;entryX=0.5;entryY=0;entryDx=0;entryDy=0;" edge="1" parent="1" source="ZtpR7DNHZK9avG1IFooU-3" target="ZtpR7DNHZK9avG1IFooU-4">
          <mxGeometry width="50" height="50" relative="1" as="geometry">
            <mxPoint x="390" y="410" as="sourcePoint" />
            <mxPoint x="440" y="360" as="targetPoint" />
          </mxGeometry>
        </mxCell>
        <mxCell id="ZtpR7DNHZK9avG1IFooU-23" value="Start" style="edgeLabel;html=1;align=center;verticalAlign=middle;resizable=0;points=[];" vertex="1" connectable="0" parent="ZtpR7DNHZK9avG1IFooU-9">
          <mxGeometry x="0.0667" y="-1" relative="1" as="geometry">
            <mxPoint as="offset" />
          </mxGeometry>
        </mxCell>
        <mxCell id="ZtpR7DNHZK9avG1IFooU-10" value="" style="endArrow=classic;html=1;rounded=0;exitX=0.5;exitY=1;exitDx=0;exitDy=0;entryX=0.5;entryY=0;entryDx=0;entryDy=0;" edge="1" parent="1" source="ZtpR7DNHZK9avG1IFooU-4" target="ZtpR7DNHZK9avG1IFooU-5">
          <mxGeometry width="50" height="50" relative="1" as="geometry">
            <mxPoint x="390" y="410" as="sourcePoint" />
            <mxPoint x="440" y="360" as="targetPoint" />
          </mxGeometry>
        </mxCell>
        <mxCell id="ZtpR7DNHZK9avG1IFooU-24" value="Complete" style="edgeLabel;html=1;align=center;verticalAlign=middle;resizable=0;points=[];" vertex="1" connectable="0" parent="ZtpR7DNHZK9avG1IFooU-10">
          <mxGeometry x="-0.1" y="1" relative="1" as="geometry">
            <mxPoint as="offset" />
          </mxGeometry>
        </mxCell>
        <mxCell id="ZtpR7DNHZK9avG1IFooU-30" value="" style="edgeStyle=orthogonalEdgeStyle;rounded=0;orthogonalLoop=1;jettySize=auto;html=1;" edge="1" parent="1" source="ZtpR7DNHZK9avG1IFooU-14" target="ZtpR7DNHZK9avG1IFooU-29">
          <mxGeometry relative="1" as="geometry" />
        </mxCell>
        <mxCell id="ZtpR7DNHZK9avG1IFooU-32" value="Plan" style="edgeLabel;html=1;align=center;verticalAlign=middle;resizable=0;points=[];" vertex="1" connectable="0" parent="ZtpR7DNHZK9avG1IFooU-30">
          <mxGeometry x="0.0667" relative="1" as="geometry">
            <mxPoint as="offset" />
          </mxGeometry>
        </mxCell>
        <mxCell id="ZtpR7DNHZK9avG1IFooU-14" value="Draft" style="rounded=0;whiteSpace=wrap;html=1;" vertex="1" parent="1">
          <mxGeometry x="440" y="80" width="120" height="60" as="geometry" />
        </mxCell>
        <mxCell id="ZtpR7DNHZK9avG1IFooU-15" value="Activities" style="text;html=1;align=center;verticalAlign=middle;whiteSpace=wrap;rounded=0;" vertex="1" parent="1">
          <mxGeometry x="470" y="40" width="60" height="30" as="geometry" />
        </mxCell>
        <mxCell id="ZtpR7DNHZK9avG1IFooU-16" value="InProgress" style="rounded=0;whiteSpace=wrap;html=1;" vertex="1" parent="1">
          <mxGeometry x="440" y="430" width="120" height="60" as="geometry" />
        </mxCell>
        <mxCell id="ZtpR7DNHZK9avG1IFooU-17" value="Completed" style="rounded=0;whiteSpace=wrap;html=1;" vertex="1" parent="1">
          <mxGeometry x="440" y="550" width="120" height="60" as="geometry" />
        </mxCell>
        <mxCell id="ZtpR7DNHZK9avG1IFooU-19" value="" style="endArrow=classic;html=1;rounded=0;exitX=0.5;exitY=1;exitDx=0;exitDy=0;entryX=0.5;entryY=0;entryDx=0;entryDy=0;" edge="1" parent="1" source="ZtpR7DNHZK9avG1IFooU-16" target="ZtpR7DNHZK9avG1IFooU-17">
          <mxGeometry width="50" height="50" relative="1" as="geometry">
            <mxPoint x="390" y="640" as="sourcePoint" />
            <mxPoint x="440" y="590" as="targetPoint" />
          </mxGeometry>
        </mxCell>
        <mxCell id="ZtpR7DNHZK9avG1IFooU-25" value="Complete" style="edgeLabel;html=1;align=center;verticalAlign=middle;resizable=0;points=[];" vertex="1" connectable="0" parent="ZtpR7DNHZK9avG1IFooU-19">
          <mxGeometry x="0.0667" y="-1" relative="1" as="geometry">
            <mxPoint as="offset" />
          </mxGeometry>
        </mxCell>
        <mxCell id="ZtpR7DNHZK9avG1IFooU-28" value="Milestone" style="text;html=1;align=center;verticalAlign=middle;resizable=0;points=[];autosize=1;strokeColor=none;fillColor=none;" vertex="1" parent="1">
          <mxGeometry x="760" y="38" width="70" height="30" as="geometry" />
        </mxCell>
        <mxCell id="ZtpR7DNHZK9avG1IFooU-31" value="" style="edgeStyle=orthogonalEdgeStyle;rounded=0;orthogonalLoop=1;jettySize=auto;html=1;exitX=0.5;exitY=1;exitDx=0;exitDy=0;" edge="1" parent="1" source="ZtpR7DNHZK9avG1IFooU-90" target="ZtpR7DNHZK9avG1IFooU-16">
          <mxGeometry relative="1" as="geometry">
            <mxPoint x="500" y="380" as="sourcePoint" />
          </mxGeometry>
        </mxCell>
        <mxCell id="ZtpR7DNHZK9avG1IFooU-33" value="Start" style="edgeLabel;html=1;align=center;verticalAlign=middle;resizable=0;points=[];" vertex="1" connectable="0" parent="ZtpR7DNHZK9avG1IFooU-31">
          <mxGeometry x="-0.1" y="1" relative="1" as="geometry">
            <mxPoint x="-1" y="68" as="offset" />
          </mxGeometry>
        </mxCell>
        <mxCell id="ZtpR7DNHZK9avG1IFooU-92" value="Start" style="edgeLabel;html=1;align=center;verticalAlign=middle;resizable=0;points=[];" vertex="1" connectable="0" parent="ZtpR7DNHZK9avG1IFooU-31">
          <mxGeometry x="-0.04" relative="1" as="geometry">
            <mxPoint as="offset" />
          </mxGeometry>
        </mxCell>
        <mxCell id="ZtpR7DNHZK9avG1IFooU-29" value="Planned" style="rounded=0;whiteSpace=wrap;html=1;" vertex="1" parent="1">
          <mxGeometry x="440" y="200" width="120" height="60" as="geometry" />
        </mxCell>
        <mxCell id="ZtpR7DNHZK9avG1IFooU-36" value="" style="edgeStyle=orthogonalEdgeStyle;rounded=0;orthogonalLoop=1;jettySize=auto;html=1;" edge="1" parent="1" source="ZtpR7DNHZK9avG1IFooU-38" target="ZtpR7DNHZK9avG1IFooU-45">
          <mxGeometry relative="1" as="geometry" />
        </mxCell>
        <mxCell id="ZtpR7DNHZK9avG1IFooU-37" value="Plan" style="edgeLabel;html=1;align=center;verticalAlign=middle;resizable=0;points=[];" vertex="1" connectable="0" parent="ZtpR7DNHZK9avG1IFooU-36">
          <mxGeometry x="0.0667" relative="1" as="geometry">
            <mxPoint as="offset" />
          </mxGeometry>
        </mxCell>
        <mxCell id="ZtpR7DNHZK9avG1IFooU-38" value="Draft" style="rounded=0;whiteSpace=wrap;html=1;" vertex="1" parent="1">
          <mxGeometry x="740" y="80" width="120" height="60" as="geometry" />
        </mxCell>
        <mxCell id="ZtpR7DNHZK9avG1IFooU-87" value="" style="edgeStyle=orthogonalEdgeStyle;rounded=0;orthogonalLoop=1;jettySize=auto;html=1;" edge="1" parent="1" source="ZtpR7DNHZK9avG1IFooU-39">
          <mxGeometry relative="1" as="geometry">
            <mxPoint x="800" y="510" as="targetPoint" />
          </mxGeometry>
        </mxCell>
        <mxCell id="ZtpR7DNHZK9avG1IFooU-89" value="Sum up" style="edgeLabel;html=1;align=center;verticalAlign=middle;resizable=0;points=[];" vertex="1" connectable="0" parent="ZtpR7DNHZK9avG1IFooU-87">
          <mxGeometry x="0.0109" y="1" relative="1" as="geometry">
            <mxPoint y="-1" as="offset" />
          </mxGeometry>
        </mxCell>
        <mxCell id="ZtpR7DNHZK9avG1IFooU-39" value="InProgress" style="rounded=0;whiteSpace=wrap;html=1;" vertex="1" parent="1">
          <mxGeometry x="740" y="405" width="120" height="60" as="geometry" />
        </mxCell>
        <mxCell id="ZtpR7DNHZK9avG1IFooU-40" value="Completed" style="rounded=0;whiteSpace=wrap;html=1;" vertex="1" parent="1">
          <mxGeometry x="740" y="630" width="120" height="60" as="geometry" />
        </mxCell>
        <mxCell id="ZtpR7DNHZK9avG1IFooU-41" value="" style="endArrow=classic;html=1;rounded=0;entryX=0.5;entryY=0;entryDx=0;entryDy=0;exitX=0.5;exitY=1;exitDx=0;exitDy=0;" edge="1" parent="1" target="ZtpR7DNHZK9avG1IFooU-40">
          <mxGeometry width="50" height="50" relative="1" as="geometry">
            <mxPoint x="800" y="570" as="sourcePoint" />
            <mxPoint x="740" y="565" as="targetPoint" />
          </mxGeometry>
        </mxCell>
        <mxCell id="ZtpR7DNHZK9avG1IFooU-42" value="Complete" style="edgeLabel;html=1;align=center;verticalAlign=middle;resizable=0;points=[];" vertex="1" connectable="0" parent="ZtpR7DNHZK9avG1IFooU-41">
          <mxGeometry x="0.0667" y="-1" relative="1" as="geometry">
            <mxPoint as="offset" />
          </mxGeometry>
        </mxCell>
        <mxCell id="ZtpR7DNHZK9avG1IFooU-81" value="" style="edgeStyle=orthogonalEdgeStyle;rounded=0;orthogonalLoop=1;jettySize=auto;html=1;" edge="1" parent="1" source="ZtpR7DNHZK9avG1IFooU-45" target="ZtpR7DNHZK9avG1IFooU-80">
          <mxGeometry relative="1" as="geometry" />
        </mxCell>
        <mxCell id="ZtpR7DNHZK9avG1IFooU-83" value="&lt;span style=&quot;color: rgba(0, 0, 0, 0); font-family: monospace; font-size: 0px; text-align: start; background-color: rgb(251, 251, 251);&quot;&gt;%3CmxGraphModel%3E%3Croot%3E%3CmxCell%20id%3D%220%22%2F%3E%3CmxCell%20id%3D%221%22%20parent%3D%220%22%2F%3E%3CmxCell%20id%3D%222%22%20value%3D%22Prepare%20Rounds%22%20style%3D%22edgeLabel%3Bhtml%3D1%3Balign%3Dcenter%3BverticalAlign%3Dmiddle%3Bresizable%3D0%3Bpoints%3D%5B%5D%3B%22%20vertex%3D%221%22%20connectable%3D%220%22%20parent%3D%221%22%3E%3CmxGeometry%20x%3D%22641%22%20y%3D%22401%22%20as%3D%22geometry%22%2F%3E%3C%2FmxCell%3E%3C%2Froot%3E%3C%2FmxGraphModel%3EPre&lt;/span&gt;" style="edgeLabel;html=1;align=center;verticalAlign=middle;resizable=0;points=[];" vertex="1" connectable="0" parent="ZtpR7DNHZK9avG1IFooU-81">
          <mxGeometry x="-0.25" y="-1" relative="1" as="geometry">
            <mxPoint as="offset" />
          </mxGeometry>
        </mxCell>
        <mxCell id="ZtpR7DNHZK9avG1IFooU-84" value="Prepare Rounds" style="edgeLabel;html=1;align=center;verticalAlign=middle;resizable=0;points=[];" vertex="1" connectable="0" parent="ZtpR7DNHZK9avG1IFooU-81">
          <mxGeometry x="-0.05" y="1" relative="1" as="geometry">
            <mxPoint as="offset" />
          </mxGeometry>
        </mxCell>
        <mxCell id="ZtpR7DNHZK9avG1IFooU-45" value="Planned" style="rounded=0;whiteSpace=wrap;html=1;" vertex="1" parent="1">
          <mxGeometry x="740" y="200" width="120" height="60" as="geometry" />
        </mxCell>
        <mxCell id="ZtpR7DNHZK9avG1IFooU-53" value="" style="endArrow=classic;html=1;rounded=0;exitX=0;exitY=0.5;exitDx=0;exitDy=0;" edge="1" parent="1" source="ZtpR7DNHZK9avG1IFooU-45">
          <mxGeometry width="50" height="50" relative="1" as="geometry">
            <mxPoint x="390" y="410" as="sourcePoint" />
            <mxPoint x="640" y="770" as="targetPoint" />
            <Array as="points">
              <mxPoint x="640" y="230" />
            </Array>
          </mxGeometry>
        </mxCell>
        <mxCell id="ZtpR7DNHZK9avG1IFooU-55" value="Rounds" style="text;html=1;align=center;verticalAlign=middle;whiteSpace=wrap;rounded=0;" vertex="1" parent="1">
          <mxGeometry x="610" y="790" width="60" height="30" as="geometry" />
        </mxCell>
        <mxCell id="ZtpR7DNHZK9avG1IFooU-56" value="" style="edgeStyle=orthogonalEdgeStyle;rounded=0;orthogonalLoop=1;jettySize=auto;html=1;" edge="1" parent="1" source="ZtpR7DNHZK9avG1IFooU-58" target="ZtpR7DNHZK9avG1IFooU-65">
          <mxGeometry relative="1" as="geometry" />
        </mxCell>
        <mxCell id="ZtpR7DNHZK9avG1IFooU-57" value="Plan" style="edgeLabel;html=1;align=center;verticalAlign=middle;resizable=0;points=[];" vertex="1" connectable="0" parent="ZtpR7DNHZK9avG1IFooU-56">
          <mxGeometry x="0.0667" relative="1" as="geometry">
            <mxPoint as="offset" />
          </mxGeometry>
        </mxCell>
        <mxCell id="ZtpR7DNHZK9avG1IFooU-58" value="Draft" style="rounded=0;whiteSpace=wrap;html=1;" vertex="1" parent="1">
          <mxGeometry x="590" y="830" width="120" height="60" as="geometry" />
        </mxCell>
        <mxCell id="ZtpR7DNHZK9avG1IFooU-59" value="InProgress" style="rounded=0;whiteSpace=wrap;html=1;" vertex="1" parent="1">
          <mxGeometry x="590" y="1070" width="120" height="60" as="geometry" />
        </mxCell>
        <mxCell id="ZtpR7DNHZK9avG1IFooU-60" value="Completed" style="rounded=0;whiteSpace=wrap;html=1;" vertex="1" parent="1">
          <mxGeometry x="590" y="1310" width="120" height="60" as="geometry" />
        </mxCell>
        <mxCell id="ZtpR7DNHZK9avG1IFooU-63" value="" style="edgeStyle=orthogonalEdgeStyle;rounded=0;orthogonalLoop=1;jettySize=auto;html=1;" edge="1" parent="1" source="ZtpR7DNHZK9avG1IFooU-65" target="ZtpR7DNHZK9avG1IFooU-59">
          <mxGeometry relative="1" as="geometry" />
        </mxCell>
        <mxCell id="ZtpR7DNHZK9avG1IFooU-64" value="Start" style="edgeLabel;html=1;align=center;verticalAlign=middle;resizable=0;points=[];" vertex="1" connectable="0" parent="ZtpR7DNHZK9avG1IFooU-63">
          <mxGeometry x="-0.1" y="1" relative="1" as="geometry">
            <mxPoint as="offset" />
          </mxGeometry>
        </mxCell>
        <mxCell id="ZtpR7DNHZK9avG1IFooU-65" value="Planned" style="rounded=0;whiteSpace=wrap;html=1;" vertex="1" parent="1">
          <mxGeometry x="590" y="950" width="120" height="60" as="geometry" />
        </mxCell>
        <mxCell id="ZtpR7DNHZK9avG1IFooU-66" value="NOT READY" style="rounded=0;whiteSpace=wrap;html=1;" vertex="1" parent="1">
          <mxGeometry x="840" y="990" width="120" height="60" as="geometry" />
        </mxCell>
        <mxCell id="ZtpR7DNHZK9avG1IFooU-67" value="Judge Round Status" style="text;html=1;align=center;verticalAlign=middle;whiteSpace=wrap;rounded=0;" vertex="1" parent="1">
          <mxGeometry x="840" y="950" width="130" height="30" as="geometry" />
        </mxCell>
        <mxCell id="ZtpR7DNHZK9avG1IFooU-68" value="NOT READY" style="rounded=0;whiteSpace=wrap;html=1;" vertex="1" parent="1">
          <mxGeometry x="850" y="1000" width="120" height="60" as="geometry" />
        </mxCell>
        <mxCell id="ZtpR7DNHZK9avG1IFooU-69" value="NOT READY" style="rounded=0;whiteSpace=wrap;html=1;" vertex="1" parent="1">
          <mxGeometry x="860" y="1010" width="120" height="60" as="geometry" />
        </mxCell>
        <mxCell id="ZtpR7DNHZK9avG1IFooU-70" value="NOT READY" style="rounded=0;whiteSpace=wrap;html=1;" vertex="1" parent="1">
          <mxGeometry x="870" y="1020" width="120" height="60" as="geometry" />
        </mxCell>
        <mxCell id="ZtpR7DNHZK9avG1IFooU-71" value="NOT READY" style="rounded=0;whiteSpace=wrap;html=1;" vertex="1" parent="1">
          <mxGeometry x="880" y="1030" width="120" height="60" as="geometry" />
        </mxCell>
        <mxCell id="ZtpR7DNHZK9avG1IFooU-72" value="NOT READY" style="rounded=0;whiteSpace=wrap;html=1;" vertex="1" parent="1">
          <mxGeometry x="890" y="1040" width="120" height="60" as="geometry" />
        </mxCell>
        <mxCell id="ZtpR7DNHZK9avG1IFooU-77" value="" style="edgeStyle=orthogonalEdgeStyle;rounded=0;orthogonalLoop=1;jettySize=auto;html=1;" edge="1" parent="1" source="ZtpR7DNHZK9avG1IFooU-75" target="ZtpR7DNHZK9avG1IFooU-60">
          <mxGeometry relative="1" as="geometry" />
        </mxCell>
        <mxCell id="ZtpR7DNHZK9avG1IFooU-79" value="Complete" style="edgeLabel;html=1;align=center;verticalAlign=middle;resizable=0;points=[];" vertex="1" connectable="0" parent="ZtpR7DNHZK9avG1IFooU-77">
          <mxGeometry x="-0.1" y="-1" relative="1" as="geometry">
            <mxPoint as="offset" />
          </mxGeometry>
        </mxCell>
        <mxCell id="ZtpR7DNHZK9avG1IFooU-75" value="Ready" style="rounded=0;whiteSpace=wrap;html=1;" vertex="1" parent="1">
          <mxGeometry x="590" y="1190" width="120" height="60" as="geometry" />
        </mxCell>
        <mxCell id="ZtpR7DNHZK9avG1IFooU-76" value="" style="endArrow=classic;html=1;rounded=0;exitX=0.5;exitY=1;exitDx=0;exitDy=0;entryX=0.5;entryY=0;entryDx=0;entryDy=0;" edge="1" parent="1" source="ZtpR7DNHZK9avG1IFooU-59" target="ZtpR7DNHZK9avG1IFooU-75">
          <mxGeometry width="50" height="50" relative="1" as="geometry">
            <mxPoint x="390" y="1110" as="sourcePoint" />
            <mxPoint x="440" y="1060" as="targetPoint" />
          </mxGeometry>
        </mxCell>
        <mxCell id="ZtpR7DNHZK9avG1IFooU-78" value="Ready" style="edgeLabel;html=1;align=center;verticalAlign=middle;resizable=0;points=[];" vertex="1" connectable="0" parent="ZtpR7DNHZK9avG1IFooU-76">
          <mxGeometry x="-0.0333" relative="1" as="geometry">
            <mxPoint as="offset" />
          </mxGeometry>
        </mxCell>
        <mxCell id="ZtpR7DNHZK9avG1IFooU-82" value="" style="edgeStyle=orthogonalEdgeStyle;rounded=0;orthogonalLoop=1;jettySize=auto;html=1;" edge="1" parent="1" source="ZtpR7DNHZK9avG1IFooU-80" target="ZtpR7DNHZK9avG1IFooU-39">
          <mxGeometry relative="1" as="geometry" />
        </mxCell>
        <mxCell id="ZtpR7DNHZK9avG1IFooU-85" value="Start" style="edgeLabel;html=1;align=center;verticalAlign=middle;resizable=0;points=[];" vertex="1" connectable="0" parent="ZtpR7DNHZK9avG1IFooU-82">
          <mxGeometry x="-0.2" y="1" relative="1" as="geometry">
            <mxPoint as="offset" />
          </mxGeometry>
        </mxCell>
        <mxCell id="ZtpR7DNHZK9avG1IFooU-80" value="Pending" style="rounded=0;whiteSpace=wrap;html=1;" vertex="1" parent="1">
          <mxGeometry x="740" y="300" width="120" height="60" as="geometry" />
        </mxCell>
        <mxCell id="ZtpR7DNHZK9avG1IFooU-88" value="Summarizing" style="rounded=0;whiteSpace=wrap;html=1;" vertex="1" parent="1">
          <mxGeometry x="740" y="510" width="120" height="60" as="geometry" />
        </mxCell>
        <mxCell id="ZtpR7DNHZK9avG1IFooU-90" value="Registration Closed" style="rounded=0;whiteSpace=wrap;html=1;" vertex="1" parent="1">
          <mxGeometry x="440" y="320" width="120" height="60" as="geometry" />
        </mxCell>
        <mxCell id="ZtpR7DNHZK9avG1IFooU-91" value="" style="endArrow=classic;html=1;rounded=0;exitX=0.5;exitY=1;exitDx=0;exitDy=0;entryX=0.5;entryY=0;entryDx=0;entryDy=0;" edge="1" parent="1" source="ZtpR7DNHZK9avG1IFooU-29" target="ZtpR7DNHZK9avG1IFooU-90">
          <mxGeometry width="50" height="50" relative="1" as="geometry">
            <mxPoint x="930" y="400" as="sourcePoint" />
            <mxPoint x="980" y="350" as="targetPoint" />
          </mxGeometry>
        </mxCell>
        <mxCell id="ZtpR7DNHZK9avG1IFooU-93" value="Close Registration" style="edgeLabel;html=1;align=center;verticalAlign=middle;resizable=0;points=[];" vertex="1" connectable="0" parent="ZtpR7DNHZK9avG1IFooU-91">
          <mxGeometry x="0.0667" relative="1" as="geometry">
            <mxPoint as="offset" />
          </mxGeometry>
        </mxCell>
        <mxCell id="ZtpR7DNHZK9avG1IFooU-94" value="" style="endArrow=classic;html=1;rounded=0;exitX=1;exitY=0.5;exitDx=0;exitDy=0;entryX=1;entryY=0.5;entryDx=0;entryDy=0;" edge="1" parent="1" source="ZtpR7DNHZK9avG1IFooU-59" target="ZtpR7DNHZK9avG1IFooU-58">
          <mxGeometry width="50" height="50" relative="1" as="geometry">
            <mxPoint x="930" y="1200" as="sourcePoint" />
            <mxPoint x="780" y="980" as="targetPoint" />
            <Array as="points">
              <mxPoint x="780" y="1100" />
              <mxPoint x="780" y="860" />
            </Array>
          </mxGeometry>
        </mxCell>
        <mxCell id="ZtpR7DNHZK9avG1IFooU-95" value="Back to Draft" style="edgeLabel;html=1;align=center;verticalAlign=middle;resizable=0;points=[];" vertex="1" connectable="0" parent="ZtpR7DNHZK9avG1IFooU-94">
          <mxGeometry x="0.0385" relative="1" as="geometry">
            <mxPoint as="offset" />
          </mxGeometry>
        </mxCell>
        <mxCell id="ZtpR7DNHZK9avG1IFooU-97" value="NOT READY" style="rounded=0;whiteSpace=wrap;html=1;" vertex="1" parent="1">
          <mxGeometry x="950" y="370" width="120" height="60" as="geometry" />
        </mxCell>
        <mxCell id="ZtpR7DNHZK9avG1IFooU-98" value="Judge Milestone Status" style="text;html=1;align=center;verticalAlign=middle;whiteSpace=wrap;rounded=0;" vertex="1" parent="1">
          <mxGeometry x="950" y="330" width="130" height="30" as="geometry" />
        </mxCell>
        <mxCell id="ZtpR7DNHZK9avG1IFooU-99" value="NOT READY" style="rounded=0;whiteSpace=wrap;html=1;" vertex="1" parent="1">
          <mxGeometry x="960" y="380" width="120" height="60" as="geometry" />
        </mxCell>
        <mxCell id="ZtpR7DNHZK9avG1IFooU-100" value="NOT READY" style="rounded=0;whiteSpace=wrap;html=1;" vertex="1" parent="1">
          <mxGeometry x="970" y="390" width="120" height="60" as="geometry" />
        </mxCell>
        <mxCell id="ZtpR7DNHZK9avG1IFooU-101" value="" style="endArrow=classic;html=1;rounded=0;exitX=0;exitY=0.5;exitDx=0;exitDy=0;entryX=0;entryY=0.5;entryDx=0;entryDy=0;" edge="1" parent="1" source="ZtpR7DNHZK9avG1IFooU-65" target="ZtpR7DNHZK9avG1IFooU-58">
          <mxGeometry width="50" height="50" relative="1" as="geometry">
            <mxPoint x="430" y="980" as="sourcePoint" />
            <mxPoint x="480" y="860" as="targetPoint" />
            <Array as="points">
              <mxPoint x="480" y="980" />
              <mxPoint x="480" y="860" />
            </Array>
          </mxGeometry>
        </mxCell>
        <mxCell id="ZtpR7DNHZK9avG1IFooU-102" value="Back to Draft" style="edgeLabel;html=1;align=center;verticalAlign=middle;resizable=0;points=[];" vertex="1" connectable="0" parent="ZtpR7DNHZK9avG1IFooU-101">
          <mxGeometry relative="1" as="geometry">
            <mxPoint as="offset" />
          </mxGeometry>
        </mxCell>
        <mxCell id="ZtpR7DNHZK9avG1IFooU-103" value="" style="endArrow=classic;html=1;rounded=0;exitX=0;exitY=0.5;exitDx=0;exitDy=0;entryX=0;entryY=0.5;entryDx=0;entryDy=0;" edge="1" parent="1" source="ZtpR7DNHZK9avG1IFooU-88" target="ZtpR7DNHZK9avG1IFooU-39">
          <mxGeometry width="50" height="50" relative="1" as="geometry">
            <mxPoint x="930" y="670" as="sourcePoint" />
            <mxPoint x="680" y="430" as="targetPoint" />
            <Array as="points">
              <mxPoint x="680" y="540" />
              <mxPoint x="680" y="435" />
            </Array>
          </mxGeometry>
        </mxCell>
        <mxCell id="ZtpR7DNHZK9avG1IFooU-104" value="Перетанцока" style="edgeLabel;html=1;align=center;verticalAlign=middle;resizable=0;points=[];" vertex="1" connectable="0" parent="ZtpR7DNHZK9avG1IFooU-103">
          <mxGeometry x="0.0578" relative="1" as="geometry">
            <mxPoint as="offset" />
          </mxGeometry>
        </mxCell>
      </root>
    </mxGraphModel>
  </diagram>
</mxfile>
